# xmcd
#
# Track frame offsets:
#	150
#	8175
#	21739
#	41448
#	64958
#	85557
#	110417
#	133436
#	161907
#	185972
#	198889
#	222203
#
# Disc length: 3344 seconds
#
# Revision: 1
# Processed by: cddbd v1.5.2PL0 Copyright (c) Steve Scherf et al.
# Submitted via: audiograbber 1.83.01
#
DISCID=b20d0e0c
DTITLE=Beth Hart and Joe Bonamassa - Live In Amsterdam [CD 1)
DYEAR=2014
DGENRE=Blues
TTITLE0=Amsterdam, Amsterdam!
TTITLE1=Them There Eyes
TTITLE2=Sinner's Prayer
TTITLE3=Can't Let Go
TTITLE4=For My Friends
TTITLE5=Close To My Fire
TTITLE6=Rhymes
TTITLE7=Something's Got A Hold On Me
TTITLE8=Your Heart Is As Black As Night
TTITLE9=Chocolate Jesus
TTITLE10=Baddest Blue
TTITLE11=Someday After Awhile (You'll Be Sorry)
EXTD=
EXTT0=
EXTT1=
EXTT2=
EXTT3=
EXTT4=
EXTT5=
EXTT6=
EXTT7=
EXTT8=
EXTT9=
EXTT10=
EXTT11=
PLAYORDER=
